<svg width="20" height="20" viewBox="0 0 20 20" fill="none" xmlns="http://www.w3.org/2000/svg">
<path fill-rule="evenodd" clip-rule="evenodd" d="M17.201 6.63585L16.6612 5.69915C16.2046 4.90657 15.1925 4.63314 14.3989 5.08792V5.08792C14.0211 5.31048 13.5703 5.37362 13.1459 5.26342C12.7214 5.15323 12.3583 4.87874 12.1365 4.5005C11.9938 4.26008 11.9171 3.98625 11.9142 3.70669V3.70669C11.9271 3.25849 11.758 2.82416 11.4455 2.50264C11.1329 2.18113 10.7036 1.99982 10.2552 2H9.16766C8.72837 2 8.3072 2.17504 7.99732 2.48641C7.68745 2.79777 7.51442 3.21978 7.51653 3.65906V3.65906C7.50351 4.56602 6.76453 5.2944 5.85747 5.29431C5.57791 5.29141 5.30408 5.21473 5.06366 5.07204V5.07204C4.26999 4.61727 3.25797 4.89069 2.8013 5.68328L2.22182 6.63585C1.76571 7.42744 2.03541 8.43883 2.82512 8.89821V8.89821C3.33844 9.19457 3.65466 9.74227 3.65466 10.335C3.65466 10.9277 3.33844 11.4754 2.82512 11.7718V11.7718C2.03642 12.2281 1.76642 13.237 2.22182 14.0262V14.0262L2.76955 14.9708C2.98352 15.3569 3.34252 15.6418 3.76711 15.7625C4.1917 15.8832 4.64687 15.8297 5.03191 15.6138V15.6138C5.41042 15.393 5.86148 15.3325 6.28482 15.4457C6.70817 15.559 7.06871 15.8367 7.28633 16.2171C7.42902 16.4575 7.50569 16.7314 7.5086 17.0109V17.0109C7.5086 17.9272 8.25138 18.67 9.16766 18.67H10.2552C11.1684 18.67 11.9099 17.9321 11.9142 17.0189V17.0189C11.9121 16.5782 12.0862 16.155 12.3978 15.8434C12.7094 15.5318 13.1326 15.3577 13.5733 15.3598C13.8522 15.3673 14.1249 15.4436 14.3671 15.5821V15.5821C15.1587 16.0382 16.1701 15.7685 16.6295 14.9788V14.9788L17.201 14.0262C17.4222 13.6465 17.483 13.1942 17.3697 12.7696C17.2565 12.345 16.9786 11.983 16.5977 11.7639V11.7639C16.2168 11.5447 15.9389 11.1827 15.8257 10.7581C15.7125 10.3335 15.7732 9.88123 15.9944 9.5015C16.1383 9.25033 16.3465 9.04207 16.5977 8.89821V8.89821C17.3827 8.43908 17.6518 7.4336 17.201 6.64379V6.64379V6.63585Z" stroke="black" stroke-width="1.5" stroke-linecap="round" stroke-linejoin="round"/>
<circle opacity="0.4" cx="9.7154" cy="10.3348" r="2.28617" stroke="black" stroke-width="1.5" stroke-linecap="round" stroke-linejoin="round"/>
</svg>
