<svg width="20" height="20" viewBox="0 0 20 20" fill="none" xmlns="http://www.w3.org/2000/svg">
<path opacity="0.4" fill-rule="evenodd" clip-rule="evenodd" d="M13.9069 2H16.6296C17.7561 2 18.67 2.92177 18.67 4.0589V6.80438C18.67 7.94065 17.7561 8.86328 16.6296 8.86328H13.9069C12.7796 8.86328 11.8658 7.94065 11.8658 6.80438V4.0589C11.8658 2.92177 12.7796 2 13.9069 2Z" stroke="black" stroke-width="1.5" stroke-linecap="round" stroke-linejoin="round"/>
<path fill-rule="evenodd" clip-rule="evenodd" d="M4.04118 2H6.76303C7.89037 2 8.8042 2.92177 8.8042 4.0589V6.80438C8.8042 7.94065 7.89037 8.86328 6.76303 8.86328H4.04118C2.91383 8.86328 2 7.94065 2 6.80438V4.0589C2 2.92177 2.91383 2 4.04118 2Z" stroke="black" stroke-width="1.5" stroke-linecap="round" stroke-linejoin="round"/>
<path fill-rule="evenodd" clip-rule="evenodd" d="M4.04118 11.8066H6.76303C7.89037 11.8066 8.8042 12.7284 8.8042 13.8664V16.611C8.8042 17.7482 7.89037 18.6699 6.76303 18.6699H4.04118C2.91383 18.6699 2 17.7482 2 16.611V13.8664C2 12.7284 2.91383 11.8066 4.04118 11.8066Z" stroke="black" stroke-width="1.5" stroke-linecap="round" stroke-linejoin="round"/>
<path fill-rule="evenodd" clip-rule="evenodd" d="M13.9069 11.8066H16.6296C17.7561 11.8066 18.67 12.7284 18.67 13.8664V16.611C18.67 17.7482 17.7561 18.6699 16.6296 18.6699H13.9069C12.7796 18.6699 11.8658 17.7482 11.8658 16.611V13.8664C11.8658 12.7284 12.7796 11.8066 13.9069 11.8066Z" stroke="black" stroke-width="1.5" stroke-linecap="round" stroke-linejoin="round"/>
</svg>
