<svg width="20" height="20" viewBox="0 0 20 20" fill="none" xmlns="http://www.w3.org/2000/svg">
<path d="M4.16667 9.16667H10.8333V10.8333H4.16667V13.3333L0 10L4.16667 6.66667V9.16667ZM3.33273 15H5.59029C6.76552 16.0373 8.30926 16.6667 10 16.6667C13.6819 16.6667 16.6667 13.6819 16.6667 10C16.6667 6.3181 13.6819 3.33334 10 3.33334C8.30926 3.33334 6.76552 3.96273 5.59029 5.00001H3.33273C4.85307 2.97593 7.27363 1.66667 10 1.66667C14.6023 1.66667 18.3333 5.39763 18.3333 10C18.3333 14.6023 14.6023 18.3333 10 18.3333C7.27363 18.3333 4.85307 17.0241 3.33273 15Z" fill="#F33A6A"/>
</svg>
