<svg width="20" height="20" viewBox="0 0 20 20" fill="none" xmlns="http://www.w3.org/2000/svg">
<path opacity="0.4" fill-rule="evenodd" clip-rule="evenodd" d="M6.21027 17.2618C6.59053 17.2618 6.8996 17.5777 6.8996 17.9664C6.8996 18.355 6.59053 18.67 6.21027 18.67C5.83002 18.67 5.52185 18.355 5.52185 17.9664C5.52185 17.5777 5.83002 17.2618 6.21027 17.2618Z" stroke="black" stroke-width="1.5" stroke-linecap="round" stroke-linejoin="round"/>
<path opacity="0.4" fill-rule="evenodd" clip-rule="evenodd" d="M16.3495 17.2618C16.7297 17.2618 17.0388 17.5777 17.0388 17.9664C17.0388 18.355 16.7297 18.67 16.3495 18.67C15.9692 18.67 15.6602 18.355 15.6602 17.9664C15.6602 17.5777 15.9692 17.2618 16.3495 17.2618Z" stroke="black" stroke-width="1.5" stroke-linecap="round" stroke-linejoin="round"/>
<path d="M2 2L3.87424 2.33157L4.74198 12.8986C4.81226 13.7597 5.516 14.421 6.36121 14.421H16.1938C17.0011 14.421 17.686 13.815 17.8022 12.9971L18.6573 6.95698C18.7627 6.21187 18.1978 5.54505 17.4616 5.54505H4.1752" stroke="black" stroke-width="1.5" stroke-linecap="round" stroke-linejoin="round"/>
<path opacity="0.4" d="M12.2502 8.9491H14.7489" stroke="black" stroke-width="1.5" stroke-linecap="round" stroke-linejoin="round"/>
</svg>
