<svg width="20" height="20" viewBox="0 0 20 20" fill="none" xmlns="http://www.w3.org/2000/svg">
<path fill-rule="evenodd" clip-rule="evenodd" d="M9.39017 15.7488L4.24628 18.5668C3.83558 18.7802 3.32961 18.6292 3.1032 18.2255V18.2255C3.03769 18.1004 3.00235 17.9618 3 17.8206V5.334C3 2.95257 4.62731 2 6.96905 2H12.4701C14.7404 2 16.4392 2.88907 16.4392 5.17524V17.8206C16.4392 18.0459 16.3497 18.2619 16.1904 18.4212C16.0311 18.5805 15.8151 18.67 15.5898 18.67C15.4461 18.6677 15.3049 18.6324 15.177 18.5668L10.0014 15.7488C9.81068 15.6457 9.58089 15.6457 9.39017 15.7488Z" stroke="black" stroke-width="1.5" stroke-linecap="round" stroke-linejoin="round"/>
<path opacity="0.4" d="M6.53247 7.6757H12.8591" stroke="black" stroke-width="1.5" stroke-linecap="round" stroke-linejoin="round"/>
</svg>
